<?xml version="1.0" encoding="UTF-8"?><svg id="Layer_1" xmlns="http://www.w3.org/2000/svg" viewBox="0 0 2854.68 532.72"><defs><style>.cls-1{fill:#02a586;}</style></defs><g><path class="cls-1" d="m439.46,317.69v80.49c-3.26,3.77-6.7,7.45-10.28,11.03-49.22,49.22-116.42,69.55-180.46,60.91-3-.4-4.86-3.48-3.76-6.3,3.89-9.96,7.78-19.6,11.64-28.7,10.74-25.33,25.01-43.09,41.6-56.36h.01c21.61-1.35,41.3-6.78,59.09-16.32v-14.49c8.78-3.18,17.75-6.12,26.82-9.08,14.23-4.66,28.97-9.48,42.97-15.31,4.23-1.75,8.34-3.72,12.36-5.87Z"/><path class="cls-1" d="m263.54,51.7c-19.68,17.45-36.32,38.03-46.29,62-5.82,14.02-10.63,28.76-15.28,43-.49,1.51-.99,3.01-1.48,4.52-9.12,8.08-16.79,17.62-23.03,28.59-8.98,15.78-14.2,33.5-15.67,53.16-13.23,16.43-30.92,30.59-56.08,41.25-10.54,4.46-21.79,8.97-33.45,13.47-2.74,1.06-5.76-.68-6.26-3.6-11.45-66.36,8.46-137.11,59.71-188.36,37.5-37.5,85.41-58.23,134.42-62.17,4.45-.35,6.75,5.18,3.41,8.13Z"/><path class="cls-1" d="m222.14,363.28c12.89,7.14,27,11.85,42.34,14.16-11.63,12.87-21.93,28.63-30.22,48.21-4.58,10.8-9.2,22.35-13.81,34.3-.86,2.26-3.34,3.51-5.66,2.8-32.59-9.91-63.31-27.75-89.09-53.54-23.82-23.82-40.86-51.83-51.13-81.68-.8-2.36.44-4.93,2.78-5.82,13.2-5.04,25.95-10.13,37.81-15.16,19.37-8.22,34.99-18.37,47.79-29.84,2.31,15.36,7.15,29.5,14.51,42.44,10.72,18.87,25.62,33.57,44.69,44.12Z"/><path class="cls-1" d="m357.31,248.66h82.15v40.74c-6.87,4.65-14.09,8.62-21.66,11.77-13.15,5.45-26.77,9.91-41.2,14.64-6.35,2.08-12.8,4.19-19.29,6.42v-73.58Z"/><path class="cls-1" d="m288.46,130.42c-20.44,0-38.98,3.52-55.65,10.56,2.15-6.1,4.4-12.08,6.83-17.98,6.92-16.63,17.85-31.54,31.09-44.78,11.85-11.85,25.54-22.38,39.82-31.58.99-.63,2.19-.88,3.35-.68,42.19,7.24,82.68,27.16,115.27,59.76,5.5,5.5,10.64,11.22,15.43,17.15l-55.66,51.39c-27.75-29.23-61.24-43.85-100.48-43.85Z"/><path class="cls-1" d="m597.29,209.74c15.25-6.06,32.71-9.1,52.39-9.1v84.12c-8.53-.98-15.58-1.48-21.15-1.48-20.01,0-35.66,5.41-46.98,16.23-11.31,10.82-16.97,27.39-16.97,49.69v122.49h-93.47V205.06h89.04v31.98c9.51-12.13,21.89-21.23,37.14-27.3Z"/><path class="cls-1" d="m919.27,361.99h-193.82c3.94,13.77,11.56,24.35,22.87,31.73,11.31,7.38,25.5,11.07,42.55,11.07,12.79,0,23.86-1.8,33.2-5.41,9.35-3.6,18.77-9.51,28.29-17.71l49.19,51.16c-25.91,28.86-63.79,43.29-113.64,43.29-31.16,0-58.54-5.9-82.15-17.71-23.61-11.81-41.9-28.2-54.85-49.19-12.96-20.98-19.43-44.77-19.43-71.33s6.31-49.76,18.94-70.59c12.62-20.82,30.08-37.14,52.39-48.95,22.3-11.81,47.39-17.71,75.27-17.71s50.67,5.5,72.32,16.48c21.65,10.99,38.78,26.9,51.41,47.72,12.62,20.83,18.94,45.5,18.94,74.04,0,.66-.49,8.36-1.48,23.12Zm-176.85-82.64c-9.68,8.2-15.83,19.35-18.45,33.45h109.21c-2.63-14.1-8.78-25.25-18.45-33.45-9.68-8.19-21.73-12.3-36.16-12.3s-26.49,4.1-36.16,12.3Z"/><path class="cls-1" d="m1134.24,230.89c23.28,20.17,34.93,51.08,34.93,92.73v148.07h-87.07v-34.44c-13.45,25.91-39.68,38.86-78.71,38.86-20.66,0-38.54-3.61-53.62-10.82-15.09-7.21-26.49-16.97-34.19-29.27-7.71-12.3-11.56-26.32-11.56-42.06,0-25.25,9.67-44.84,29.02-58.79,19.35-13.94,49.19-20.91,89.53-20.91h53.13c-1.64-28.2-20.5-42.31-56.57-42.31-12.79,0-25.75,2.05-38.86,6.15-13.12,4.1-24.27,9.76-33.45,16.97l-31.48-63.46c14.76-9.84,32.71-17.46,53.87-22.87,21.15-5.41,42.38-8.12,63.7-8.12,44.27,0,78.05,10.08,101.34,30.25Zm-76.25,178.33c8.19-5.24,14.1-12.95,17.71-23.12v-23.12h-40.34c-27.23,0-40.83,9.02-40.83,27.06,0,8.2,3.11,14.76,9.35,19.68,6.23,4.92,14.76,7.38,25.58,7.38s20.33-2.62,28.53-7.87Z"/><path class="cls-1" d="m1374.79,460.87c-7.87,4.92-17.46,8.69-28.78,11.31s-23.37,3.94-36.16,3.94c-34.77,0-61.49-8.52-80.18-25.58-18.69-17.05-28.04-42.47-28.04-76.25v-89.53h-38.86v-69.85h38.86v-69.36h93.47v69.36h61v69.85h-61v88.55c0,9.52,2.54,16.97,7.62,22.38,5.08,5.41,11.88,8.12,20.42,8.12,10.82,0,20.33-2.78,28.53-8.36l23.12,65.43Z"/></g><g><path class="cls-1" d="m1748.6,142.84c22.95,10.33,40.66,25.09,53.13,44.27,12.46,19.19,18.69,41.74,18.69,67.64s-6.23,48.38-18.69,67.39c-12.47,19.02-30.18,33.7-53.13,44.03-22.96,10.33-50.02,15.49-81.17,15.49h-60.02v90.02h-97.4V127.34h157.42c31.15,0,58.21,5.17,81.17,15.5Zm-41.81,149.06c10.16-8.69,15.25-21.07,15.25-37.14s-5.09-28.53-15.25-37.39c-10.17-8.86-25.26-13.28-45.26-13.28h-54.11v100.85h54.11c20,0,35.09-4.34,45.26-13.04Z"/><path class="cls-1" d="m2038.34,230.89c23.28,20.17,34.93,51.08,34.93,92.73v148.07h-87.07v-34.44c-13.45,25.91-39.69,38.86-78.71,38.86-20.66,0-38.54-3.61-53.62-10.82-15.09-7.21-26.49-16.97-34.19-29.27-7.71-12.3-11.56-26.32-11.56-42.06,0-25.25,9.67-44.84,29.02-58.79,19.35-13.94,49.19-20.91,89.53-20.91h53.13c-1.64-28.2-20.5-42.31-56.57-42.31-12.79,0-25.75,2.05-38.86,6.15-13.12,4.1-24.27,9.76-33.45,16.97l-31.48-63.46c14.76-9.84,32.71-17.46,53.87-22.87,21.15-5.41,42.38-8.12,63.7-8.12,44.27,0,78.05,10.08,101.34,30.25Zm-76.25,178.33c8.19-5.24,14.1-12.95,17.71-23.12v-23.12h-40.34c-27.23,0-40.83,9.02-40.83,27.06,0,8.2,3.11,14.76,9.35,19.68,6.23,4.92,14.76,7.38,25.58,7.38s20.33-2.62,28.53-7.87Z"/><path class="cls-1" d="m2382.2,106.68v365.01h-89.04v-26.57c-17.39,20.66-43.46,30.99-78.22,30.99-24.27,0-46.41-5.66-66.41-16.97-20.01-11.32-35.83-27.46-47.47-48.46-11.65-20.98-17.46-45.26-17.46-72.81s5.82-51.73,17.46-72.56c11.64-20.82,27.46-36.81,47.47-47.96,20-11.14,42.14-16.73,66.41-16.73,31.81,0,56.4,9.19,73.79,27.55v-121.51h93.47Zm-107.73,278.19c10.49-11.31,15.74-26.97,15.74-46.98s-5.16-35.09-15.5-46.24c-10.33-11.15-23.7-16.73-40.09-16.73s-29.85,5.58-40.34,16.73c-10.5,11.15-15.74,26.56-15.74,46.24s5.24,35.67,15.74,46.98c10.49,11.31,23.94,16.97,40.34,16.97s29.35-5.66,39.85-16.97Z"/><path class="cls-1" d="m2675.88,361.99h-193.82c3.94,13.77,11.56,24.35,22.88,31.73,11.31,7.38,25.5,11.07,42.55,11.07,12.79,0,23.86-1.8,33.21-5.41,9.35-3.6,18.77-9.51,28.29-17.71l49.19,51.16c-25.91,28.86-63.79,43.29-113.64,43.29-31.16,0-58.54-5.9-82.15-17.71-23.61-11.81-41.9-28.2-54.85-49.19-12.96-20.98-19.43-44.77-19.43-71.33s6.31-49.76,18.94-70.59c12.62-20.82,30.08-37.14,52.39-48.95,22.3-11.81,47.39-17.71,75.27-17.71s50.67,5.5,72.31,16.48c21.65,10.99,38.78,26.89,51.41,47.72,12.62,20.83,18.94,45.5,18.94,74.04,0,.66-.49,8.36-1.48,23.12Zm-176.85-82.65c-9.68,8.2-15.83,19.36-18.45,33.45h109.21c-2.63-14.1-8.78-25.25-18.45-33.45-9.68-8.19-21.73-12.3-36.16-12.3s-26.49,4.1-36.16,12.3Z"/><path class="cls-1" d="m2683.26,106.68h93.47v365.01h-93.47V106.68Z"/></g></svg>